<svg width="52" height="52" viewBox="0 0 52 52" fill="none" xmlns="http://www.w3.org/2000/svg">
    <rect width="52" height="52" rx="6" fill="#8B73EF"/>
    <path d="M22.945 14.6565C24.8523 11.9467 28.5952 11.2962 31.3049 13.2034L36.5945 16.9265L22.3135 37.2163C20.4063 39.9261 16.6634 40.5767 13.9536 38.6694L13.5706 38.3998C10.8608 36.4925 10.2102 32.7497 12.1175 30.0399L22.945 14.6565Z"
          fill="#F0EFF4"/>
    <path d="M32.0703 13.7433L39.8172 19.1959C42.3684 20.9916 42.9809 24.5154 41.1853 27.0666V27.0666C39.3896 29.6178 35.8658 30.2302 33.3146 28.4346L25.5677 22.982L32.0703 13.7433Z"
          fill="#F0EFF4"/>
    <path d="M24.4062 20.9092L33.9045 27.5945C36.4557 29.3902 37.0682 32.914 35.2726 35.4652V35.4652C33.4769 38.0163 29.9531 38.6288 27.4019 36.8332L17.9036 30.1479L24.4062 20.9092Z"
          fill="#F0EFF4"/>
</svg>
