<svg width="44" height="44" viewBox="0 0 44 44" fill="none" xmlns="http://www.w3.org/2000/svg">
    <circle cx="22" cy="22" r="20.5" fill="#8B73EF" stroke="#F0EFF4" stroke-width="3"/>
    <path d="M30.6665 14.3737H27.2323L25.2498 12.207H18.7498L16.7673 14.3737H13.3332C12.7585 14.3737 12.2074 14.602 11.8011 15.0083C11.3948 15.4146 11.1665 15.9657 11.1665 16.5404V29.5404C11.1665 30.115 11.3948 30.6661 11.8011 31.0724C12.2074 31.4788 12.7585 31.707 13.3332 31.707H30.6665C31.2411 31.707 31.7922 31.4788 32.1986 31.0724C32.6049 30.6661 32.8332 30.115 32.8332 29.5404V16.5404C32.8332 15.9657 32.6049 15.4146 32.1986 15.0083C31.7922 14.602 31.2411 14.3737 30.6665 14.3737ZM30.6665 29.5404H13.3332V16.5404H17.7207L19.7032 14.3737H24.2965L26.279 16.5404H30.6665V29.5404ZM21.9998 17.6237C20.5632 17.6237 19.1855 18.1944 18.1697 19.2102C17.1539 20.226 16.5832 21.6038 16.5832 23.0404C16.5832 24.477 17.1539 25.8547 18.1697 26.8705C19.1855 27.8863 20.5632 28.457 21.9998 28.457C23.4364 28.457 24.8142 27.8863 25.83 26.8705C26.8458 25.8547 27.4165 24.477 27.4165 23.0404C27.4165 21.6038 26.8458 20.226 25.83 19.2102C24.8142 18.1944 23.4364 17.6237 21.9998 17.6237ZM21.9998 26.2904C21.1379 26.2904 20.3112 25.948 19.7017 25.3385C19.0922 24.729 18.7498 23.9023 18.7498 23.0404C18.7498 22.1784 19.0922 21.3518 19.7017 20.7423C20.3112 20.1328 21.1379 19.7904 21.9998 19.7904C22.8618 19.7904 23.6884 20.1328 24.2979 20.7423C24.9074 21.3518 25.2498 22.1784 25.2498 23.0404C25.2498 23.9023 24.9074 24.729 24.2979 25.3385C23.6884 25.948 22.8618 26.2904 21.9998 26.2904Z"
          fill="#F0EFF4"/>
</svg>
