<svg width="32" height="32" viewBox="0 0 32 32" fill="none" xmlns="http://www.w3.org/2000/svg">
    <path d="M4.00008 13.3333H28.0001V26.672C28.0001 27.4053 27.4067 28 26.6761 28H5.32408C5.14992 27.9998 4.97751 27.9653 4.81669 27.8985C4.65587 27.8316 4.50981 27.7337 4.38685 27.6104C4.26389 27.4871 4.16644 27.3407 4.10007 27.1797C4.03371 27.0187 3.99973 26.8462 4.00008 26.672V13.3333ZM12.0001 16V18.6667H20.0001V16H12.0001ZM2.66675 5.33333C2.66675 4.59733 3.27341 4 3.98941 4H28.0107C28.7414 4 29.3334 4.592 29.3334 5.33333V10.6667H2.66675V5.33333Z"
          fill="#8B73EF"/>
</svg>
