<svg width="20" height="21" viewBox="0 0 20 21" fill="none" xmlns="http://www.w3.org/2000/svg">
    <path d="M4.16667 18.8332C3.70833 18.8332 3.31583 18.6701 2.98917 18.344C2.66306 18.0173 2.5 17.6248 2.5 17.1665V5.49984C2.5 5.0415 2.66306 4.64928 2.98917 4.32317C3.31583 3.9965 3.70833 3.83317 4.16667 3.83317H5V2.979C5 2.74289 5.07972 2.54845 5.23917 2.39567C5.39917 2.24289 5.59722 2.1665 5.83333 2.1665C6.06944 2.1665 6.2675 2.24623 6.4275 2.40567C6.58694 2.56567 6.66667 2.76373 6.66667 2.99984V3.83317H13.3333V2.979C13.3333 2.74289 13.4133 2.54845 13.5733 2.39567C13.7328 2.24289 13.9306 2.1665 14.1667 2.1665C14.4028 2.1665 14.6006 2.24623 14.76 2.40567C14.92 2.56567 15 2.76373 15 2.99984V3.83317H15.8333C16.2917 3.83317 16.6842 3.9965 17.0108 4.32317C17.3369 4.64928 17.5 5.0415 17.5 5.49984V17.1665C17.5 17.6248 17.3369 18.0173 17.0108 18.344C16.6842 18.6701 16.2917 18.8332 15.8333 18.8332H4.16667ZM4.16667 17.1665H15.8333V8.83317H4.16667V17.1665Z"
          fill="black"/>
</svg>
