<svg width="24" height="24" viewBox="0 0 24 24" fill="none" xmlns="http://www.w3.org/2000/svg">
    <path d="M6.58594 11.6543C6.58594 11.543 6.60645 11.4404 6.64746 11.3467C6.68848 11.2471 6.75 11.1562 6.83203 11.0742L13.8018 4.25391C13.96 4.10156 14.1504 4.02539 14.373 4.02539C14.5254 4.02539 14.6602 4.06055 14.7773 4.13086C14.9004 4.20117 14.9971 4.29785 15.0674 4.4209C15.1436 4.53809 15.1816 4.67285 15.1816 4.8252C15.1816 5.04199 15.1025 5.23242 14.9443 5.39648L8.5459 11.6543L14.9443 17.9121C15.1025 18.0762 15.1816 18.2666 15.1816 18.4834C15.1816 18.6357 15.1436 18.7705 15.0674 18.8877C14.9971 19.0107 14.9004 19.1074 14.7773 19.1777C14.6602 19.248 14.5254 19.2832 14.373 19.2832C14.1504 19.2832 13.96 19.2041 13.8018 19.0459L6.83203 12.2344C6.75 12.1523 6.68848 12.0645 6.64746 11.9707C6.60645 11.8711 6.58594 11.7656 6.58594 11.6543Z" fill="#D9D9D9"/>
</svg>
