<svg width="24" height="24" viewBox="0 0 24 24" fill="none" xmlns="http://www.w3.org/2000/svg">
    <path d="M17.4229 11.6543C17.4229 11.7656 17.3994 11.8711 17.3525 11.9707C17.3115 12.0645 17.25 12.1523 17.168 12.2344L10.207 19.0459C10.0488 19.2041 9.85547 19.2832 9.62695 19.2832C9.48047 19.2832 9.3457 19.248 9.22266 19.1777C9.09961 19.1074 9.00293 19.0107 8.93262 18.8877C8.8623 18.7705 8.82715 18.6357 8.82715 18.4834C8.82715 18.2666 8.90332 18.0762 9.05566 17.9121L15.4541 11.6543L9.05566 5.39648C8.90332 5.23242 8.82715 5.04199 8.82715 4.8252C8.82715 4.67285 8.8623 4.53809 8.93262 4.4209C9.00293 4.29785 9.09961 4.20117 9.22266 4.13086C9.3457 4.06055 9.48047 4.02539 9.62695 4.02539C9.85547 4.02539 10.0488 4.10156 10.207 4.25391L17.168 11.0742C17.25 11.1562 17.3115 11.2471 17.3525 11.3467C17.3994 11.4404 17.4229 11.543 17.4229 11.6543Z" fill="#161D24"/>
</svg>
