<svg width="118" height="118" viewBox="0 0 118 118" fill="none" xmlns="http://www.w3.org/2000/svg">
    <g clip-path="url(#clip0_0_390)">
        <path d="M104.304 96.6336C112.816 86.435 118 73.3286 118 59C118 26.4236 91.5764 0 59 0C26.4236 0 0 26.4236 0 59C0 73.3286 5.18357 86.435 13.6964 96.6336L13.6121 96.7179C13.9071 97.055 14.2443 97.3922 14.5393 97.7293C14.9186 98.1507 15.34 98.5721 15.7193 98.9936C16.8993 100.258 18.1214 101.522 19.3857 102.66C19.765 102.997 20.1864 103.334 20.5657 103.671C21.9143 104.851 23.305 105.947 24.7379 106.959C24.9064 107.085 25.075 107.254 25.2857 107.38C35.0629 114.165 46.7786 118 59 118C71.2214 118 82.9371 114.165 92.7143 107.338C92.7143 107.338 93.0514 107.085 93.2621 106.959C94.695 105.947 96.0857 104.809 97.4343 103.671C97.8136 103.334 98.235 102.997 98.6143 102.66C99.8786 101.522 101.101 100.258 102.281 98.9936C102.66 98.5721 103.081 98.1507 103.461 97.7293C103.756 97.3922 104.093 97.0972 104.388 96.7179L104.304 96.6336ZM59 25.2857C69.4936 25.2857 77.9643 33.7564 77.9643 44.25C77.9643 54.7436 69.4936 63.2143 59 63.2143C48.5064 63.2143 40.0357 54.7436 40.0357 44.25C40.0357 33.7564 48.5064 25.2857 59 25.2857ZM25.3279 96.6336C25.4964 85.1286 34.8521 75.8571 46.3571 75.8571H71.6429C83.19 75.8571 92.5036 85.1286 92.6721 96.6336C83.4429 104.894 71.5586 109.571 59 109.571C46.4414 109.571 34.515 104.894 25.3279 96.6336Z"
              fill="#D9D9D9"/>
        <path d="M104.304 96.6336C112.816 86.435 118 73.3286 118 59C118 26.4236 91.5764 0 59 0C26.4236 0 0 26.4236 0 59C0 73.3286 5.18357 86.435 13.6964 96.6336L13.6121 96.7179C13.9071 97.055 14.2443 97.3922 14.5393 97.7293C14.9186 98.1507 15.34 98.5721 15.7193 98.9936C16.8993 100.258 18.1214 101.522 19.3857 102.66C19.765 102.997 20.1864 103.334 20.5657 103.671C21.9143 104.851 23.305 105.947 24.7379 106.959C24.9064 107.085 25.075 107.254 25.2857 107.38C35.0629 114.165 46.7786 118 59 118C71.2214 118 82.9371 114.165 92.7143 107.338C92.7143 107.338 93.0514 107.085 93.2621 106.959C94.695 105.947 96.0857 104.809 97.4343 103.671C97.8136 103.334 98.235 102.997 98.6143 102.66C99.8786 101.522 101.101 100.258 102.281 98.9936C102.66 98.5721 103.081 98.1507 103.461 97.7293C103.756 97.3922 104.093 97.0972 104.388 96.7179L104.304 96.6336ZM59 25.2857C69.4936 25.2857 77.9643 33.7564 77.9643 44.25C77.9643 54.7436 69.4936 63.2143 59 63.2143C48.5064 63.2143 40.0357 54.7436 40.0357 44.25C40.0357 33.7564 48.5064 25.2857 59 25.2857ZM25.3279 96.6336C25.4964 85.1286 34.8521 75.8571 46.3571 75.8571H71.6429C83.19 75.8571 92.5036 85.1286 92.6721 96.6336C83.4429 104.894 71.5586 109.571 59 109.571C46.4414 109.571 34.515 104.894 25.3279 96.6336Z"
              fill="#D9D9D9"/>
    </g>
    <defs>
        <clipPath id="clip0_0_390">
            <rect width="118" height="118" fill="white"/>
        </clipPath>
    </defs>
</svg>
