<svg width="14" height="14" viewBox="0 0 14 14" fill="none" xmlns="http://www.w3.org/2000/svg">
    <g id="Isolation_Mode" clip-path="url(#clip0_947_1166)">
        <path id="Vector"
              d="M7 0.871094C3.6225 0.871094 0.875 3.61859 0.875 6.99609C0.875 10.3736 3.6225 13.1211 7 13.1211C10.3775 13.1211 13.125 10.3736 13.125 6.99609C13.125 3.61859 10.3775 0.871094 7 0.871094ZM7 12.2461C4.10375 12.2461 1.75 9.89234 1.75 6.99609C1.75 4.09984 4.10375 1.74609 7 1.74609C9.89625 1.74609 12.25 4.09984 12.25 6.99609C12.25 9.89234 9.89625 12.2461 7 12.2461Z"
              fill="#FF2424"/>
        <path id="Vector_2" d="M7.4375 3.5H6.5625V8.3125H7.4375V3.5Z" fill="#FF2424"/>
        <path id="Vector_3"
              d="M7 9.62109C6.63688 9.62109 6.34375 9.91422 6.34375 10.2773C6.34375 10.6405 6.63688 10.9336 7 10.9336C7.36312 10.9336 7.65625 10.6405 7.65625 10.2773C7.65625 9.91422 7.36312 9.62109 7 9.62109Z"
              fill="#FF2424"/>
    </g>
    <defs>
        <clipPath id="clip0_947_1166">
            <rect width="14" height="14" fill="white"/>
        </clipPath>
    </defs>
</svg>
