<svg width="32" height="32" viewBox="0 0 32 32" fill="none" xmlns="http://www.w3.org/2000/svg">
    <path d="M28.2535 15.397L16.2586 3.47179C16.1722 3.3857 16.0696 3.31739 15.9567 3.27079C15.8438 3.22418 15.7227 3.2002 15.6004 3.2002C15.4782 3.2002 15.3571 3.22418 15.2442 3.27079C15.1313 3.31739 15.0287 3.3857 14.9423 3.47179L2.94738 15.397C2.59793 15.7447 2.3999 16.2169 2.3999 16.7095C2.3999 17.7322 3.23567 18.5637 4.26365 18.5637H5.5275V27.0731C5.5275 27.5859 5.94393 28.0002 6.45937 28.0002H13.7367V21.5103H16.9983V28.0002H24.7415C25.257 28.0002 25.6734 27.5859 25.6734 27.0731V18.5637H26.9373C27.4323 18.5637 27.907 18.3696 28.2564 18.0191C28.9815 17.2947 28.9815 16.1213 28.2535 15.397Z"
          fill="#AAAAAA"/>
</svg>
