<svg width="193" height="56" viewBox="0 0 193 56" fill="none" xmlns="http://www.w3.org/2000/svg">
    <path d="M2.6 17.48H21.56V23.56H11.2V29.12H20.8V34.16H11.2V45H2.6V17.48ZM34.6684 45.32C32.4284 45.32 30.4284 44.88 28.6684 44C26.9351 43.12 25.5751 41.9067 24.5884 40.36C23.6284 38.7867 23.1484 36.9867 23.1484 34.96C23.1484 32.9333 23.6418 31.1467 24.6284 29.6C25.6151 28.0267 26.9751 26.8133 28.7084 25.96C30.4684 25.1067 32.4684 24.68 34.7084 24.68C36.9751 24.68 38.9751 25.12 40.7084 26C42.4684 26.8533 43.8284 28.0533 44.7884 29.6C45.7484 31.1467 46.2284 32.9333 46.2284 34.96C46.2284 37.0133 45.7351 38.8267 44.7484 40.4C43.7884 41.9467 42.4284 43.16 40.6684 44.04C38.9351 44.8933 36.9351 45.32 34.6684 45.32ZM34.7484 39.32C35.8418 39.32 36.7351 38.92 37.4284 38.12C38.1484 37.2933 38.5084 36.24 38.5084 34.96C38.5084 33.68 38.1484 32.64 37.4284 31.84C36.7351 31.0133 35.8418 30.6 34.7484 30.6C33.6551 30.6 32.7484 31.0133 32.0284 31.84C31.3351 32.64 30.9884 33.68 30.9884 34.96C30.9884 36.24 31.3351 37.2933 32.0284 38.12C32.7484 38.92 33.6551 39.32 34.7484 39.32ZM59.1066 45.32C56.9732 45.32 55.0799 44.8933 53.4266 44.04C51.7999 43.16 50.5199 41.9333 49.5866 40.36C48.6799 38.7867 48.2266 37 48.2266 35C48.2266 33.08 48.7066 31.3333 49.6666 29.76C50.6266 28.1867 51.9332 26.9467 53.5866 26.04C55.2399 25.1333 57.0799 24.68 59.1066 24.68C61.6932 24.68 63.7332 25.2133 65.2266 26.28L64.4666 31.6C62.9466 31.1467 61.6932 30.92 60.7066 30.92C59.4266 30.92 58.4132 31.2933 57.6666 32.04C56.9199 32.76 56.5466 33.7467 56.5466 35C56.5466 36.2533 56.9199 37.2533 57.6666 38C58.4132 38.7467 59.3999 39.12 60.6266 39.12C61.6932 39.12 62.9466 38.8933 64.3866 38.44L65.1466 44.04C64.2399 44.4933 63.3199 44.8133 62.3866 45C61.4532 45.2133 60.3599 45.32 59.1066 45.32ZM78.7338 45.32C76.6271 45.32 74.7471 44.9467 73.0938 44.2C71.4671 43.4533 70.2004 42.4 69.2938 41.04C68.3871 39.68 67.9338 38.1333 67.9338 36.4V24.96H76.1738V36.28C76.1738 37.16 76.4138 37.8533 76.8938 38.36C77.4004 38.84 78.0271 39.08 78.7738 39.08C79.4938 39.08 80.0804 38.84 80.5338 38.36C81.0138 37.8533 81.2538 37.16 81.2538 36.28V24.96H89.3338V36.4C89.3338 38.16 88.8804 39.72 87.9738 41.08C87.0938 42.4133 85.8538 43.4533 84.2538 44.2C82.6538 44.9467 80.8138 45.32 78.7338 45.32ZM100.131 45.32C97.3309 45.32 94.8776 44.9067 92.7709 44.08L93.6909 39.32C95.6109 40.0133 97.4776 40.36 99.2909 40.36C100.624 40.36 101.291 39.9867 101.291 39.24C101.291 38.8667 101.091 38.56 100.691 38.32C100.318 38.08 99.5976 37.8667 98.5309 37.68C96.3176 37.2533 94.7176 36.5333 93.7309 35.52C92.7709 34.5067 92.2909 33.0667 92.2909 31.2C92.3976 29.0933 93.2376 27.48 94.8109 26.36C96.3843 25.24 98.5309 24.68 101.251 24.68C102.638 24.68 103.824 24.7733 104.811 24.96C105.824 25.12 106.744 25.4 107.571 25.8L106.731 30.56C105.958 30.2667 105.104 30.04 104.171 29.88C103.264 29.72 102.504 29.64 101.891 29.64C100.984 29.64 100.358 29.7333 100.011 29.92C99.6643 30.1067 99.4909 30.36 99.4909 30.68C99.4909 31.2667 100.158 31.68 101.491 31.92C103.918 32.3467 105.731 33.0933 106.931 34.16C108.131 35.2267 108.731 36.68 108.731 38.52C108.731 40.6267 107.984 42.2933 106.491 43.52C105.024 44.72 102.904 45.32 100.131 45.32ZM118.728 45.32C116.488 45.32 114.741 44.6 113.488 43.16C112.234 41.72 111.608 39.76 111.608 37.28V24.96H120.088V36.92C120.088 37.5333 120.248 38.0133 120.568 38.36C120.914 38.68 121.354 38.84 121.888 38.84C122.421 38.84 122.968 38.68 123.528 38.36L123.968 43.92C123.381 44.3733 122.608 44.72 121.648 44.96C120.714 45.2 119.741 45.32 118.728 45.32ZM115.848 21.96C114.594 21.96 113.528 21.5733 112.648 20.8C111.794 20 111.368 19.0267 111.368 17.88C111.368 16.7333 111.821 15.7733 112.728 15C113.634 14.2267 114.674 13.84 115.848 13.84C117.074 13.84 118.128 14.24 119.008 15.04C119.914 15.84 120.368 16.7867 120.368 17.88C120.368 19.0533 119.914 20.0267 119.008 20.8C118.101 21.5733 117.048 21.96 115.848 21.96ZM135.057 45.32C133.244 45.32 131.59 44.84 130.097 43.88C128.63 42.92 127.47 41.6533 126.617 40.08C125.764 38.48 125.337 36.7867 125.337 35C125.337 33.1067 125.777 31.3733 126.657 29.8C127.564 28.2 128.764 26.9467 130.257 26.04C131.777 25.1333 133.39 24.68 135.097 24.68C136.644 24.68 137.95 25 139.017 25.64C140.11 26.28 140.99 27.3067 141.657 28.72V18.64L150.097 17.4V45H141.657V41.28C140.404 43.9733 138.204 45.32 135.057 45.32ZM137.697 39C138.817 39 139.75 38.6 140.497 37.8C141.27 37 141.657 36.0667 141.657 35V34.84C141.657 33.8 141.257 32.9067 140.457 32.16C139.657 31.3867 138.737 31 137.697 31C136.577 31 135.63 31.4 134.857 32.2C134.11 32.9733 133.737 33.9067 133.737 35C133.737 36.12 134.124 37.0667 134.897 37.84C135.697 38.6133 136.63 39 137.697 39ZM164.548 45.32C162.334 45.32 160.361 44.88 158.628 44C156.921 43.0933 155.588 41.8667 154.628 40.32C153.668 38.7467 153.188 36.9733 153.188 35C153.188 32.9733 153.681 31.1733 154.668 29.6C155.654 28.0267 156.988 26.8133 158.668 25.96C160.348 25.1067 162.214 24.68 164.268 24.68C166.241 24.68 167.921 25.12 169.308 26C170.721 26.8533 171.774 28.0267 172.468 29.52C173.161 30.9867 173.508 32.64 173.508 34.48C173.508 34.96 173.481 35.3067 173.428 35.52L161.428 37.08C161.748 38.0133 162.268 38.6933 162.988 39.12C163.708 39.52 164.654 39.72 165.828 39.72C167.641 39.72 169.601 39.2533 171.708 38.32L172.708 43.68C170.228 44.7733 167.508 45.32 164.548 45.32ZM167.308 32.04C166.881 30.36 165.868 29.52 164.268 29.52C163.308 29.52 162.548 29.88 161.988 30.6C161.428 31.32 161.134 32.2533 161.108 33.4L167.308 32.04ZM176.414 25.24H184.854V29.32C185.467 27.7467 186.294 26.5867 187.334 25.84C188.401 25.0667 189.641 24.68 191.054 24.68L192.214 31.2C189.681 31.2 187.814 31.48 186.614 32.04C185.441 32.5733 184.854 33.4267 184.854 34.6V45H176.414V25.24Z"
          fill="#8B73EF"/>
    <path d="M122.359 17.7146C122.358 19.1645 121.756 20.5546 120.687 21.5798C119.618 22.6051 118.168 23.1818 116.656 23.1833H111.866C111.624 23.1833 111.392 23.0912 111.22 22.9271C111.049 22.763 110.953 22.5404 110.953 22.3083V17.8199C110.953 16.3695 111.554 14.8732 112.624 13.8476C113.693 12.822 115.144 12.2458 116.656 12.2458C118.169 12.2458 119.619 12.822 120.689 13.8476C121.759 14.8732 122.359 16.2642 122.359 17.7146Z"
          fill="#8B73EF"/>
</svg>
