<svg width="27" height="27" viewBox="0 0 27 27" fill="none" xmlns="http://www.w3.org/2000/svg">
    <path d="M17.2406 18.3094C17.0344 18.0656 16.9313 17.7889 16.9313 17.4791C16.9313 17.1701 17.0344 16.9125 17.2406 16.7063L19.3219 14.625H11.25C10.9313 14.625 10.6642 14.517 10.449 14.301C10.233 14.0857 10.125 13.8188 10.125 13.5C10.125 13.1812 10.233 12.9139 10.449 12.6979C10.6642 12.4826 10.9313 12.375 11.25 12.375H19.3219L17.2406 10.2937C17.0156 10.0687 16.9031 9.80175 16.9031 9.49275C16.9031 9.183 17.0156 8.91563 17.2406 8.69062C17.4469 8.46562 17.7049 8.35313 18.0146 8.35313C18.3236 8.35313 18.5813 8.45625 18.7875 8.6625L22.8375 12.7125C22.95 12.825 23.0299 12.9469 23.0771 13.0781C23.1236 13.2094 23.1469 13.35 23.1469 13.5C23.1469 13.65 23.1236 13.7906 23.0771 13.9219C23.0299 14.0531 22.95 14.175 22.8375 14.2875L18.7875 18.3375C18.5438 18.5812 18.2767 18.6889 17.9865 18.6604C17.6955 18.6326 17.4469 18.5156 17.2406 18.3094ZM5.625 23.625C5.00625 23.625 4.47637 23.4049 4.03537 22.9646C3.59512 22.5236 3.375 21.9937 3.375 21.375V5.625C3.375 5.00625 3.59512 4.47637 4.03537 4.03537C4.47637 3.59512 5.00625 3.375 5.625 3.375H12.375C12.6938 3.375 12.9611 3.48262 13.1771 3.69787C13.3924 3.91387 13.5 4.18125 13.5 4.5C13.5 4.81875 13.3924 5.08575 13.1771 5.301C12.9611 5.517 12.6938 5.625 12.375 5.625H5.625V21.375H12.375C12.6938 21.375 12.9611 21.483 13.1771 21.699C13.3924 21.9142 13.5 22.1812 13.5 22.5C13.5 22.8188 13.3924 23.0858 13.1771 23.301C12.9611 23.517 12.6938 23.625 12.375 23.625H5.625Z"
          fill="#8B73EF"/>
</svg>
