<svg width="32" height="32" viewBox="0 0 32 32" fill="none" xmlns="http://www.w3.org/2000/svg">
    <path d="M28.7675 8.81738L23.1825 3.23113C22.9504 2.99887 22.6747 2.81463 22.3713 2.68893C22.0679 2.56323 21.7428 2.49854 21.4144 2.49854C21.086 2.49854 20.7608 2.56323 20.4574 2.68893C20.1541 2.81463 19.8784 2.99887 19.6463 3.23113L4.23251 18.6461C3.99951 18.8776 3.81479 19.153 3.68905 19.4564C3.56331 19.7598 3.49905 20.0852 3.50001 20.4136V25.9999C3.50001 26.6629 3.7634 27.2988 4.23224 27.7676C4.70108 28.2365 5.33697 28.4999 6.00001 28.4999H11.5863C11.9147 28.5008 12.24 28.4365 12.5434 28.3107C12.8468 28.185 13.1222 28.0003 13.3538 27.7674L28.7675 12.3524C29.2362 11.8836 29.4995 11.2478 29.4995 10.5849C29.4995 9.92197 29.2362 9.28619 28.7675 8.81738ZM11.625 22.4999L20.5 13.6249L21.875 14.9999L13 23.8749L11.625 22.4999ZM9.50001 20.3749L8.12501 18.9999L17 10.1249L18.375 11.4999L9.50001 20.3749ZM6.50001 21.6249L8.43876 23.5636L10.375 25.4999H6.50001V21.6249ZM24 12.8749L19.125 7.99988L21.4175 5.70738L26.2925 10.5824L24 12.8749Z"
          fill="#AAAAAA"/>
</svg>
