<svg width="19" height="19" viewBox="0 0 19 19" fill="none" xmlns="http://www.w3.org/2000/svg">
    <g clip-path="url(#clip0_19_65)">
        <path d="M12.6666 8.7085C13.9808 8.7085 15.0337 7.64766 15.0337 6.3335C15.0337 5.01933 13.9808 3.9585 12.6666 3.9585C11.3525 3.9585 10.2916 5.01933 10.2916 6.3335C10.2916 7.64766 11.3525 8.7085 12.6666 8.7085ZM6.33329 8.7085C7.64746 8.7085 8.70038 7.64766 8.70038 6.3335C8.70038 5.01933 7.64746 3.9585 6.33329 3.9585C5.01913 3.9585 3.95829 5.01933 3.95829 6.3335C3.95829 7.64766 5.01913 8.7085 6.33329 8.7085ZM6.33329 10.2918C4.48871 10.2918 0.791626 11.2181 0.791626 13.0627V15.0418H11.875V13.0627C11.875 11.2181 8.17788 10.2918 6.33329 10.2918ZM12.6666 10.2918C12.437 10.2918 12.1758 10.3077 11.8987 10.3314C12.817 10.9964 13.4583 11.891 13.4583 13.0627V15.0418H18.2083V13.0627C18.2083 11.2181 14.5112 10.2918 12.6666 10.2918Z"
              fill="black"/>
    </g>
    <defs>
        <clipPath id="clip0_19_65">
            <rect width="19" height="19" fill="white"/>
        </clipPath>
    </defs>
</svg>
