<svg width="32" height="32" viewBox="0 0 32 32" fill="none" xmlns="http://www.w3.org/2000/svg">
    <path d="M15.9999 5.3335C17.4144 5.3335 18.771 5.8954 19.7712 6.89559C20.7713 7.89579 21.3333 9.25234 21.3333 10.6668C21.3333 12.0813 20.7713 13.4379 19.7712 14.4381C18.771 15.4383 17.4144 16.0002 15.9999 16.0002C14.5854 16.0002 13.2289 15.4383 12.2287 14.4381C11.2285 13.4379 10.6666 12.0813 10.6666 10.6668C10.6666 9.25234 11.2285 7.89579 12.2287 6.89559C13.2289 5.8954 14.5854 5.3335 15.9999 5.3335ZM15.9999 18.6668C21.8933 18.6668 26.6666 21.0535 26.6666 24.0002V26.6668H5.33325V24.0002C5.33325 21.0535 10.1066 18.6668 15.9999 18.6668Z"
          fill="#AAAAAA"/>
</svg>
