<svg width="36" height="36" viewBox="0 0 36 36" fill="none" xmlns="http://www.w3.org/2000/svg">
    <path d="M31.1737 4.82617C31.0219 4.67506 30.8301 4.57043 30.6208 4.52459C30.4116 4.47875 30.1936 4.49361 29.9925 4.56742L5.2425 13.5674C5.02905 13.6484 4.84529 13.7924 4.71561 13.9802C4.58593 14.1681 4.51648 14.391 4.51648 14.6193C4.51648 14.8476 4.58593 15.0705 4.71561 15.2583C4.84529 15.4462 5.02905 15.5902 5.2425 15.6712L16.0425 19.9912L20.3625 30.7912C20.4437 30.9952 20.5828 31.1711 20.7627 31.297C20.9426 31.423 21.1555 31.4935 21.375 31.4999C21.6023 31.4953 21.8229 31.4218 22.0077 31.2893C22.1925 31.1567 22.3327 30.9713 22.41 30.7574L31.41 6.00742C31.4866 5.80839 31.5051 5.59166 31.4633 5.38251C31.4215 5.17337 31.3211 4.98042 31.1737 4.82617ZM21.375 27.2249L18.2363 19.3499L23.625 13.9612L22.0388 12.3749L16.605 17.8087L8.775 14.6249L28.4963 7.50367L21.375 27.2249Z"
          fill="#696969"/>
</svg>
