<svg width="115" height="115" viewBox="0 0 115 115" fill="none" xmlns="http://www.w3.org/2000/svg">
    <path d="M48.0603 17.5327C52.162 10.1152 62.8235 10.1152 66.9251 17.5327L104.041 84.6208C108.018 91.8083 102.819 100.625 94.6066 100.625H20.3837C12.166 100.625 6.967 91.8083 10.9441 84.6208L48.0603 17.5327ZM62.2772 81.4583C62.2975 80.8173 62.1888 80.1787 61.9575 79.5805C61.7261 78.9823 61.377 78.4367 60.9307 77.976C60.4844 77.5154 59.9501 77.1491 59.3595 76.899C58.7689 76.6489 58.1341 76.52 57.4927 76.52C56.8514 76.52 56.2165 76.6489 55.6259 76.899C55.0354 77.1491 54.5011 77.5154 54.0548 77.976C53.6085 78.4367 53.2593 78.9823 53.028 79.5805C52.7967 80.1787 52.688 80.8173 52.7083 81.4583C52.7476 82.701 53.2689 83.8797 54.1619 84.7448C55.0548 85.61 56.2494 86.0938 57.4927 86.0938C58.7361 86.0938 59.9306 85.61 60.8236 84.7448C61.7166 83.8797 62.2379 82.701 62.2772 81.4583ZM61.0362 43.8294C60.912 42.9269 60.4498 42.1053 59.7429 41.5307C59.0361 40.956 58.1374 40.6713 57.2286 40.734C56.3198 40.7967 55.4688 41.2021 54.8475 41.8684C54.2263 42.5347 53.8813 43.412 53.8822 44.3229L53.9014 65.8902L53.9349 66.3789C54.0591 67.2814 54.5213 68.103 55.2282 68.6776C55.935 69.2523 56.8337 69.537 57.7425 69.4743C58.6513 69.4116 59.5023 69.0062 60.1236 68.3399C60.7448 67.6737 61.0898 66.7963 61.0889 65.8854L61.0697 44.3133L61.0362 43.8294Z"
          fill="#CACACA"/>
</svg>
